<?xml version="1.0" encoding="UTF-8" standalone="no"?>
<!-- Generator: Adobe Illustrator 19.2.1, SVG Export Plug-In . SVG Version: 6.00 Build 0)  -->

<svg
   version="1.1"
   id="layer"
   x="0px"
   y="0px"
   viewBox="0 0 600 370.70001"
   xml:space="preserve"
   sodipodi:docname="max-perutz-labs-vienna-logo-vector.svg"
   width="600"
   height="370.70001"
   inkscape:version="1.2 (dc2aeda, 2022-05-15)"
   xmlns:inkscape="http://www.inkscape.org/namespaces/inkscape"
   xmlns:sodipodi="http://sodipodi.sourceforge.net/DTD/sodipodi-0.dtd"
   xmlns="http://www.w3.org/2000/svg"
   xmlns:svg="http://www.w3.org/2000/svg"><defs
   id="defs326" /><sodipodi:namedview
   id="namedview324"
   pagecolor="#ffffff"
   bordercolor="#000000"
   borderopacity="0.25"
   inkscape:showpageshadow="2"
   inkscape:pageopacity="0.0"
   inkscape:pagecheckerboard="0"
   inkscape:deskcolor="#d1d1d1"
   showgrid="false"
   inkscape:zoom="0.36196319"
   inkscape:cx="298.37288"
   inkscape:cy="185.10169"
   inkscape:window-width="1920"
   inkscape:window-height="993"
   inkscape:window-x="1536"
   inkscape:window-y="0"
   inkscape:window-maximized="1"
   inkscape:current-layer="layer" />
<style
   type="text/css"
   id="style317">
	.st0{fill:#003855;}
	.st1{fill:#00CAC0;}
</style>
<path
   class="st0"
   d="M 25.7,32.3 H 26 l 27.4,77.5 H 71.8 L 99.1,32.3 h 0.3 v 77.5 h 25.5 V 0.2 H 89.4 L 63.7,73.8 H 63.4 L 37.9,0.2 H 1.6 v 109.6 h 24.1 z m 138.5,54 h 46.4 l 8.7,23.5 h 40.1 l 28.4,-38.4 28,38.4 h 30 L 303.1,51.7 341.8,0 h -28 L 289.2,33.4 265.1,0 h -30 l 39,53.2 -32.7,43.6 -38.6,-96.7 h -30 l -43.7,109.7 h 26 z m 23.2,-60.9 h 0.5 L 203.1,66 H 171.9 Z M 284,163.5 c 0,-23.2 -15.2,-36 -42.7,-36 h -51 v 109.7 h 26 v -37.9 h 20.6 l 22.1,37.9 h 28.6 l -25.3,-42 C 276,189.6 284,178.3 284,163.5 Z m -46.1,15.4 H 216.2 V 148 h 21.7 c 13.5,0 20,5.1 20,15.5 0,10.5 -6.5,15.4 -20,15.4 z m -212,21.3 h 23.7 c 27.7,0 42.9,-12.8 42.9,-36.3 0,-23.5 -15.4,-36.4 -43.2,-36.4 H 0 v 109.7 h 26 v -37 z m 0,-52.2 h 20.6 c 13.5,0 19.8,5.1 19.8,16 0,10.6 -6.5,15.8 -19.8,15.8 H 25.9 Z m 155,0 v -20.5 h -83 V 237.2 H 182 v -20.6 h -58.1 v -24.3 h 50.2 v -20.5 h -50.2 v -24 h 57 z m 315.9,68.7 59.5,-69.5 V 127.5 H 395.2 V 148 h 26.3 v 89.3 h 26.6 V 148 h 75.8 l -59.8,70.5 v 18.8 h 93.3 V 216.7 Z M 26.6,259.3 H 0 V 369 H 50.2 V 348.4 H 26.6 Z m 335.6,-66.9 c 0,17.4 -7.5,26 -22.4,26 -14.9,0 -22.3,-8.6 -22.3,-26 v -64.9 h -26.7 v 65.7 c 0,29.5 17.7,46 49,46 31.5,0 49,-16.3 49,-45.8 V 127.6 H 362.2 Z M 98,259.3 54.3,369 h 26 l 9.1,-23.5 h 46.4 l 8.7,23.5 h 27.2 L 127.9,259.3 Z m -0.9,65.9 15.5,-40.6 h 0.5 l 15.2,40.6 z m 241.4,-19.8 -20.9,-4 c -12.9,-2.5 -15.8,-5.4 -15.8,-11.7 0,-8 7.2,-13.2 18.1,-13.2 12.4,0 20.5,5.4 21.2,14.6 h 25 c -2.3,-21.5 -18.9,-33.7 -46.6,-33.7 -12.8,0 -23.3,3.2 -31.5,9.5 -8.1,6.3 -12.3,14.6 -12.3,24.7 0,17.1 10.1,27.3 30.4,31 l 19.4,3.5 c 12.1,2 16.4,5.2 16.4,12.1 0,8.1 -8,13.4 -19.8,13.4 -14.3,0 -23,-6 -24.1,-16.6 h -25.7 c 2.3,22.7 20.8,35.7 50.7,35.7 13.2,0 24,-3.2 32.4,-9.5 8.4,-6.3 12.6,-14.4 12.6,-24.7 0.2,-17.3 -9.7,-27.6 -29.5,-31.1 z m -89.3,7 c 4.3,-1.4 8.1,-4.5 11.4,-8.9 3.2,-4.5 4.9,-9.1 4.9,-13.8 0,-20.1 -14,-30.4 -40.6,-30.4 h -49 V 369 H 228 c 26.9,0 41.3,-11.2 41.3,-31.7 0.1,-11.6 -8.3,-21.3 -20.1,-24.9 z M 201.9,278.2 H 224 c 10.4,0 16.1,4.5 16.1,12.9 0,8.4 -5.7,12.9 -16.3,12.9 h -22 v -25.8 z m 23.8,71.9 h -23.8 v -27.7 h 23.8 c 11.2,0 17.5,4.9 17.5,13.7 0,9.1 -6.3,14 -17.5,14 z"
   id="path319" />
<path
   class="st1"
   d="M 401.8,298.6 H 389.9 L 376,260.1 h 11.6 l 8.5,26 h 0.1 l 8.5,-26 h 11.1 z m 29.3,0 h -10.8 v -38.5 h 10.8 z m 37.4,-8.6 v 8.6 H 439 v -38.5 h 29 v 8.6 h -18.4 v 6.2 h 16.1 v 8.6 h -16.1 v 6.4 c 0,0.1 18.9,0.1 18.9,0.1 z m 7.1,-29.9 h 12.2 l 13.3,21.5 h 0.1 v -21.5 h 10.2 v 38.5 h -10 L 486,273.9 h -0.1 v 24.7 h -10.2 z m 43.8,0 h 12.2 l 13.3,21.5 h 0.1 v -21.5 h 10.2 v 38.5 h -10 l -15.4,-24.7 h -0.1 v 24.7 h -10.2 v -38.5 z m 80.6,38.5 h -11 l -2.5,-7.2 h -14.6 l -2.6,7.2 h -10.5 l 14.4,-38.5 h 12.2 z m -20.6,-27.8 h -0.2 l -4.3,12 h 8.6 z"
   id="path321" />
</svg>
