<?xml version="1.0" encoding="UTF-8" standalone="no"?>
<!-- Generator: Adobe Illustrator 16.0.5, SVG Export Plug-In . SVG Version: 6.00 Build 0)  -->

<svg
   version="1.1"
   id="Ebene_1"
   x="0px"
   y="0px"
   width="1485.4938"
   height="1167.3772"
   viewBox="64.445 197.14 1485.4938 1167.3772"
   enable-background="new 64.445 197.14 716 199.07"
   xml:space="preserve"
   sodipodi:docname="Meduni-wien.svg"
   inkscape:version="1.2 (dc2aeda, 2022-05-15)"
   xmlns:inkscape="http://www.inkscape.org/namespaces/inkscape"
   xmlns:sodipodi="http://sodipodi.sourceforge.net/DTD/sodipodi-0.dtd"
   xmlns="http://www.w3.org/2000/svg"
   xmlns:svg="http://www.w3.org/2000/svg"><defs
   id="defs70" /><sodipodi:namedview
   id="namedview68"
   pagecolor="#ffffff"
   bordercolor="#000000"
   borderopacity="0.25"
   inkscape:showpageshadow="2"
   inkscape:pageopacity="0.0"
   inkscape:pagecheckerboard="0"
   inkscape:deskcolor="#d1d1d1"
   showgrid="false"
   inkscape:zoom="0.5927563"
   inkscape:cx="1166.584"
   inkscape:cy="565.15638"
   inkscape:window-width="1920"
   inkscape:window-height="993"
   inkscape:window-x="1536"
   inkscape:window-y="0"
   inkscape:window-maximized="1"
   inkscape:current-layer="g65" />
<g
   id="g65"
   transform="matrix(3.0055392,0,0,3.0055392,183.95213,-65.726698)">
	<path
   fill="#111d4e"
   d="m 207.48085,359.95478 c -75.11849,0 -136.23994,-61.09143 -136.23994,-136.23819 0,-75.13085 61.11969,-136.255845 136.23994,-136.255845 75.13439,0 136.25233,61.124995 136.25233,136.255845 0,75.145 -61.11794,136.23819 -136.25233,136.23819 z m 0,-264.731265 c -70.84216,0 -128.473634,57.643855 -128.473634,128.493075 0,70.85276 57.631474,128.48425 128.473634,128.48425 70.8563,0 128.48955,-57.63149 128.48955,-128.48425 0,-70.84922 -57.63325,-128.493075 -128.48955,-128.493075 z"
   id="path53"
   style="stroke-width:1.76708" />
	<path
   fill="#111d4e"
   d="m 248.44396,117.98767 c -1.00725,-0.38522 -2.03921,-0.77398 -3.09239,-1.15037 -0.16788,-0.053 -0.32692,-0.10596 -0.48949,-0.16787 l -0.34811,-0.11309 c -1.85014,-0.64321 -3.80805,-1.26699 -5.82076,-1.85012 -0.52305,-0.14844 -0.99839,-0.2898 -1.47373,-0.41703 -2.30428,-0.62908 -4.44421,-1.15214 -6.51522,-1.58154 l -0.30924,-0.0813 c -2.11873,-0.43471 -4.39119,-0.83054 -6.96053,-1.19278 -0.40112,-0.0671 -0.81108,-0.12196 -1.21928,-0.1608 l -0.52305,-0.0671 c -1.78652,-0.22796 -3.61015,-0.41704 -5.4214,-0.5637 l -0.48947,-0.0406 c -0.50362,-0.0406 -1.00018,-0.0795 -1.50909,-0.10784 -2.716,-0.17317 -4.97609,-0.24738 -7.1284,-0.24738 -1.60274,0 -3.33625,0.0477 -5.30653,0.1343 -0.40289,0.0194 -0.8058,0.0477 -1.19455,0.0742 l -0.50892,0.0265 c -1.16626,0.0742 -2.38732,0.16082 -3.60837,0.2739 -0.62908,0.0619 -1.27407,0.12901 -1.90491,0.19438 -1.09913,0.12196 -2.24596,0.26861 -3.49882,0.44354 l -0.59019,0.0795 c -0.39584,0.0547 -0.77752,0.10784 -1.16098,0.16257 -1.61158,0.25446 -3.23551,0.54956 -4.79762,0.85704 -0.46297,0.0937 -0.91888,0.20144 -1.36771,0.30924 l -0.68387,0.14667 c -0.94538,0.20851 -1.89077,0.41702 -2.83086,0.65735 -0.84465,0.20851 -1.68225,0.42939 -2.51984,0.65734 -0.74572,0.20146 -1.47552,0.41527 -2.21239,0.63085 -0.9065,0.2686 -1.82716,0.5425 -2.71953,0.83053 -0.42234,0.13429 -0.8323,0.28274 -1.24756,0.41703 l -0.40819,0.14667 c -3.54122,1.20691 -7.02944,2.5711 -10.35331,4.08018 l -0.34988,0.1608 c -0.14668,0.0671 -0.29511,0.12723 -0.44177,0.20145 -1.14684,0.52306 -2.31135,1.08676 -3.43697,1.65045 l -0.51599,0.26683 c -3.85576,1.9756 -7.61081,4.17561 -11.20504,6.5488 3.39279,-0.8323 6.83153,-1.24756 10.27203,-1.24756 13.8044,0 26.84367,6.6124 35.06766,17.73262 8.22045,-11.12022 21.25972,-17.73262 35.06236,-17.73262 24.0305,0 43.57615,19.54388 43.57615,43.56908 v 105.16934 c 0,4.69336 -3.81866,8.51731 -8.51202,8.51731 -4.70042,0 -8.52968,-3.82395 -8.52968,-8.51731 V 171.51772 c 0,-14.63141 -11.89951,-26.53268 -26.53445,-26.53268 -14.63494,0 -26.53975,11.90127 -26.53975,26.53268 v 105.16941 c 0,4.69336 -3.81511,8.51731 -8.52261,8.51731 -4.69689,0 -8.52085,-3.82395 -8.52085,-8.51731 V 171.51772 c 0,-14.63141 -11.90481,-26.53268 -26.54681,-26.53268 -14.62788,0 -26.53091,11.90127 -26.53091,26.53268 v 97.42431 c 0.28273,24.64367 5.8879,47.88251 36.37883,60.71326 1.47375,0.60081 2.9899,1.18041 4.54669,1.72997 0.14668,0.0512 0.28804,0.10959 0.42764,0.14491 0.14136,0.0547 0.27566,0.0848 0.41703,0.13429 1.83069,0.62908 3.79922,1.267 5.81722,1.8466 l 0.16611,0.0495 c 0.43646,0.1202 0.87293,0.24386 1.30233,0.37816 2.3131,0.62023 4.4442,1.15037 6.50991,1.5833 l 0.30924,0.0688 c 2.17175,0.45591 4.44597,0.84643 6.96405,1.20868 0.37463,0.0512 0.74395,0.0937 1.12033,0.1449 l 0.63615,0.0831 c 1.77062,0.22796 3.58717,0.4135 5.39842,0.56194 l 0.49656,0.0282 c 0.49478,0.0371 1.00546,0.0937 1.50731,0.1202 2.72307,0.15903 4.992,0.24209 7.12486,0.24209 1.60274,0 3.34685,-0.0406 5.31714,-0.1343 0.39582,-0.0141 0.79165,-0.0406 1.18041,-0.069 l 0.51068,-0.0371 c 1.25993,-0.0831 2.47391,-0.14843 3.60661,-0.26859 0.64322,-0.053 1.2882,-0.11845 1.91904,-0.18732 1.08853,-0.11483 2.22829,-0.25445 3.50235,-0.44176 l 0.57077,-0.0795 c 0.38876,-0.053 0.78459,-0.10959 1.17335,-0.17494 1.6098,-0.25623 3.23197,-0.53896 4.81351,-0.84643 0.44354,-0.0901 0.8853,-0.19438 1.32884,-0.29157 l 0.69624,-0.16434 c 0.95245,-0.21381 1.9049,-0.41172 2.84322,-0.65558 0.84466,-0.19792 1.68757,-0.44177 2.51809,-0.65559 0.7457,-0.20144 1.48257,-0.41173 2.21945,-0.64322 0.91181,-0.26506 1.81832,-0.52482 2.72306,-0.81109 0.35519,-0.13075 0.70507,-0.25799 1.05318,-0.35871 l 0.59021,-0.20321 c 3.56773,-1.22106 7.0471,-2.58877 10.35685,-4.08902 l 0.1608,-0.0831 c 0.21381,-0.0937 0.42232,-0.18554 0.62907,-0.2792 1.16804,-0.53896 2.32725,-1.1009 3.4405,-1.65046 0.16788,-0.0937 0.33576,-0.18907 0.50362,-0.26859 3.85577,-1.9703 7.61788,-4.15616 11.22096,-6.55763 -3.39633,0.84643 -6.83683,1.24579 -10.28264,1.24579 -13.80264,0 -26.84191,-6.59473 -35.05706,-17.71496 -8.22397,11.12023 -21.26324,17.71496 -35.06236,17.71496 -24.03402,0 -43.58321,-19.54564 -43.58321,-43.57968 V 171.51765 c 0,-4.69689 3.82218,-8.51909 8.51555,-8.51909 4.70396,0 8.53322,3.8222 8.53322,8.51909 v 105.16942 c 0,14.64731 11.90657,26.56095 26.53444,26.56095 14.6314,0 26.53621,-11.91364 26.53621,-26.56095 V 171.51765 c 0,-4.69689 3.81866,-8.51909 8.52615,-8.51909 4.69513,0 8.51731,3.8222 8.51731,8.51909 v 105.16942 c 0,14.64731 11.90481,26.56095 26.53975,26.56095 14.62788,0 26.54151,-11.91364 26.54151,-26.56095 V 177.4727 c -0.55132,-24.34503 -6.81738,-47.08379 -37.83666,-59.48514 z"
   id="path55"
   style="stroke-width:1.76708" />
	<path
   fill="#111d4e"
   d="m 110.97588,163.20013 c -1.89784,3.00403 -3.68083,6.08935 -5.29063,9.25772 l -0.25446,0.50891 c -0.57076,1.12741 -1.1327,2.27954 -1.66282,3.43344 -0.0813,0.16081 -0.14137,0.30924 -0.21558,0.45591 l -0.14667,0.33574 c -1.50202,3.29914 -2.86973,6.79972 -4.09079,10.36922 l -0.134301,0.38876 c -0.139599,0.41702 -0.28096,0.83228 -0.415261,1.24754 -0.280961,0.8588 -0.537193,1.72997 -0.796948,2.60292 l -0.04061,0.12021 c -0.208512,0.73687 -0.422334,1.46136 -0.623774,2.21238 -0.227954,0.8323 -0.455909,1.67695 -0.66442,2.52162 -0.235027,0.93832 -0.441777,1.8784 -0.650289,2.81672 l -0.160804,0.7245 c -0.100713,0.44177 -0.204975,0.88708 -0.298629,1.34298 -0.307475,1.55327 -0.602581,3.17544 -0.8588,4.78524 -0.05298,0.37639 -0.106086,0.75102 -0.153744,1.12563 l -0.08659,0.63086 c -0.187319,1.34121 -0.32868,2.4421 -0.448836,3.50058 -0.06185,0.63084 -0.129003,1.27406 -0.189082,1.90491 -0.100713,1.12562 -0.194379,2.30603 -0.2739,3.61013 l -0.03361,0.59021 c -0.02649,0.37639 -0.04773,0.73865 -0.0671,1.11326 -0.08834,1.91905 -0.127229,3.63488 -0.134289,5.2712 0,1.62041 0.04061,3.33977 0.127229,5.28356 0.02649,0.37639 0.04061,0.75278 0.0671,1.12917 l 0.02649,0.42763 c 0.08122,1.28819 0.174936,2.57462 0.288032,3.82396 l 0.04061,0.45589 c 0.03361,0.35872 0.07422,0.73865 0.107835,1.08322 0.187307,1.77062 0.395832,3.39279 0.629084,4.97079 0.03361,0.21736 0.0671,0.43117 0.100714,0.63085 0.04061,0.17317 0.06185,0.33222 0.09547,0.50715 0.20675,1.29881 0.427632,2.57464 0.683864,3.82396 0.120206,0.63968 0.257993,1.2882 0.404652,1.92965 0.201452,0.98073 0.436479,1.97383 0.697997,3.05528 l 0.134301,0.5531 c 0.106086,0.47004 0.227954,0.93832 0.348111,1.39421 0.376388,1.43664 0.784589,2.88564 1.233426,4.34525 0.160804,0.51069 0.321608,1.00193 0.496544,1.52676 l 0.213823,0.64499 c 0.256219,0.78811 0.523047,1.59213 0.805782,2.38732 0.295103,0.83229 0.590213,1.65045 0.897673,2.45447 0.25623,0.68386 0.52306,1.34298 0.79166,1.99856 1.22812,3.05175 2.59583,6.07521 4.06427,8.97322 0.23503,0.45591 0.46828,0.92419 0.71037,1.3801 0.54956,1.0461 1.03905,1.95437 1.50202,2.78845 0.1202,0.21381 0.25445,0.42939 0.38168,0.65911 l 0.21559,0.37286 c 0.8641,1.51615 1.74941,2.96515 2.62764,4.36291 z"
   id="path57"
   style="stroke-width:1.76708" />
	<path
   fill="#111d4e"
   d="m 320.88001,218.85425 c -0.0265,-0.51069 -0.053,-1.03374 -0.0937,-1.54266 -0.0671,-1.26523 -0.16788,-2.55166 -0.28096,-3.83986 l -0.0336,-0.30747 c -0.0336,-0.40289 -0.0742,-0.81816 -0.11483,-1.23342 -0.18732,-1.75824 -0.39407,-3.39456 -0.62908,-4.97609 -0.0282,-0.20145 -0.0671,-0.41703 -0.10784,-0.63086 -0.0336,-0.1608 -0.0547,-0.3216 -0.0814,-0.47004 -0.2138,-1.31293 -0.44176,-2.60113 -0.68385,-3.84516 -0.1343,-0.64322 -0.26153,-1.28996 -0.4029,-1.93495 -0.19968,-0.9118 -0.42233,-1.89077 -0.71037,-3.07118 l -0.16063,-0.65735 c -0.10596,-0.4294 -0.20673,-0.84467 -0.3216,-1.27406 -0.37462,-1.44724 -0.79165,-2.90862 -1.21929,-4.33111 -0.14843,-0.45591 -0.29686,-0.88531 -0.42939,-1.34121 -0.0955,-0.26859 -0.18908,-0.54957 -0.28273,-0.81816 -0.26861,-0.81816 -0.5372,-1.62218 -0.81817,-2.4262 -0.29509,-0.80578 -0.5902,-1.62747 -0.89236,-2.43149 -0.26153,-0.68387 -0.5319,-1.34122 -0.8005,-2.02508 -1.22104,-3.04468 -2.58876,-6.04871 -4.05014,-8.93258 l -0.1608,-0.3216 c -0.18731,-0.36226 -0.37462,-0.72451 -0.5637,-1.08676 -0.40289,-0.77752 -0.92595,-1.77238 -1.48788,-2.76548 -0.14843,-0.26859 -0.30217,-0.52305 -0.44884,-0.79165 l -0.16787,-0.28096 c -0.88531,-1.54266 -1.75117,-2.97753 -2.61528,-4.35939 v 113.5277 c 0,0.28273 -0.0141,0.57607 -0.0141,0.8588 v 7.48358 c 1.90491,-3.00581 3.6879,-6.10172 5.2977,-9.28423 0.0812,-0.13076 0.16081,-0.29334 0.24209,-0.4559 l 0.0265,-0.0512 c 0.54955,-1.08675 1.08674,-2.21238 1.66282,-3.43166 0.0671,-0.14845 0.13429,-0.30925 0.20144,-0.47182 l 0.15374,-0.3216 c 1.50202,-3.33448 2.88033,-6.79972 4.08725,-10.34094 l 0.16081,-0.45591 c 0.12723,-0.41703 0.26859,-0.80402 0.38874,-1.21045 0.30218,-0.89767 0.56371,-1.80066 0.83054,-2.70717 0.22264,-0.73863 0.42939,-1.48964 0.63792,-2.22827 0.22088,-0.83407 0.44883,-1.67519 0.65734,-2.50926 0.26153,-1.01783 0.48949,-2.06394 0.65735,-2.84146 l 0.11309,-0.52128 c 0.12195,-0.49656 0.24208,-1.01785 0.33574,-1.51439 0.32161,-1.59745 0.61671,-3.20549 0.8588,-4.80116 0.0671,-0.40466 0.1202,-0.80402 0.17317,-1.21044 l 0.0742,-0.53543 c 0.1873,-1.35181 0.32868,-2.46684 0.44883,-3.50941 0.0618,-0.63968 0.12196,-1.27407 0.18908,-1.91552 0.10784,-1.21045 0.20144,-2.41382 0.26683,-3.61014 l 0.0336,-0.46828 c 0.0213,-0.41526 0.0619,-0.81815 0.0742,-1.21928 0.0937,-1.97206 0.1343,-3.70379 0.1343,-5.31007 0,-1.58861 -0.0406,-3.25319 -0.1343,-5.24999 z"
   id="path59"
   style="stroke-width:1.76708" />
	<path
   fill="#111d4e"
   d="m -3.9602917,441.52733 0.486,-2.592 H -15.894292 l -0.432,2.215 4.752,1.078 c 0.108,6.479 0.27,11.395 0.27,17.875 0,3.94 -0.432,7.02 -1.296,8.692 -1.566,2.972 -5.13,3.728 -8.856,3.728 -4.428,0 -6.588,-1.457 -7.83,-3.617 -0.972,-1.674 -1.242,-4.59 -1.242,-8.209 v -18.469 l 4.59,-0.646 0.594,-2.646 h -13.986 l -0.432,2.215 4.59,1.078 v 17.496 c 0,4.213 0.054,7.668 1.188,10.045 2.052,4.428 6.372,5.939 12.366,5.939 6.426,0 9.936,-2.213 11.8260003,-5.67 1.35,-2.484 1.512,-5.4 1.566,-10.908 0.054,-6.047 0.108,-10.854 0.27,-16.902 z m 17.1709997,33.373 0.54,-2.215 -5.8320002,-1.08 c -0.162,-19.656 -0.27,-23.221 -0.432,-26.894 2.105,3.457 3.8880002,6.05 20.6280002,31.158 l 2.754,-0.647 0.324,-32.994 4.212,-0.701 0.594,-2.592 h -13.554 l -0.54,2.215 5.832,1.078 c 0.054,14.742 0.216,20.467 0.378,25.381 -2.322,-3.617 -4.536,-6.805 -19.0080002,-28.674 H 0.30370833 l -0.485,2.16 4.85899997,1.08 -0.27,29.43 -4.21199997,0.701 -0.54,2.594 z m 40.823,0 0.486,-2.215 -5.563,-1.08 v -29.377 l 4.374,-0.646 0.594,-2.646 h -13.985 l -0.486,2.215 4.86,1.078 v 29.377 l -4.32,0.701 -0.54,2.594 h 14.58 z m 21.653,0.269 12.527,-32.94 3.564,-0.701 0.485,-2.592 h -12.204 l -0.485,2.215 4.914,1.078 c -8.101,22.844 -8.803,25.057 -9.612,27.541 -0.756,-2.377 -1.62,-4.752 -10.422,-27.541 l 4.644,-0.701 0.54,-2.592 h -13.338 l -0.54,2.215 3.618,1.078 12.96,32.94 z m 45.684002,-0.269 c 0.324,-2.539 0.54,-5.672 0.594,-8.965 l -2.699,0.539 -1.513,5.51 -14.146,-0.486 v -14.041 l 8.854,0.379 1.352,3.887 1.997,-0.322 v -10.639 l -2.269,0.432 -1.08,3.295 -8.854,0.322 v -13.121 l 12.312,0.379 1.188,5.185 2.32,-0.647 c 0.379,-3.24 0.486,-5.131 0.486,-7.668 H 94.586708 l -0.486,2.215 4.859999,1.078 v 29.377 l -4.319999,0.701 -0.54,2.594 h 27.271002 v -0.004 z m 20.033,0 0.486,-2.16 -6.373,-1.135 v -12.42 c 1.135,0.055 2.594,0.106 3.836,0.106 0.539,0 1.133,0 1.674,-0.054 2.807,5.347 5.615,10.423 9.018,15.66 h 7.885 l 0.539,-2.16 -4.697,-1.026 c -3.023,-4.319 -5.615,-8.64 -8.264,-13.229 4.646,-1.352 7.777,-4.752 7.777,-9.774 0,-3.996 -1.404,-6.965 -5.184,-8.53 -2.055,-0.863 -4.914,-1.242 -9.234,-1.242 h -12.367 l -0.484,2.215 4.859,1.078 v 29.377 l -4.32,0.701 -0.539,2.594 h 15.388 z m -5.885,-18.576 v -14.635 c 0.918,-0.055 1.619,-0.055 2.32,-0.055 5.779,0 10.314,0.756 10.314,7.235 0,6.265 -4.32,7.614 -9.881,7.614 -0.648,0.003 -2.107,-0.051 -2.753,-0.159 z m 25.217,9.179 c 0,2.754 0.217,5.453 0.646,7.722 2.863,1.565 6.373,2.432 10.801,2.432 7.236,0 12.582,-4.051 12.582,-10.422 0,-4.375 -1.188,-6.48 -7.451,-9.234 l -5.238,-2.322 c -4.752,-2.053 -6.479,-3.727 -6.479,-6.805 0,-3.672 2.482,-5.832 7.02,-5.832 2.43,0 5.021,0.432 7.129,1.297 l 0.918,5.021 2.322,-0.486 c 0.432,-2.484 0.646,-4.805 0.646,-7.236 -2.377,-0.971 -5.832,-1.457 -9.611,-1.457 -7.992,0 -12.365,4.211 -12.365,9.828 0,4.645 2.32,7.127 7.182,9.396 l 4.859,2.213 c 5.617,2.539 7.02,4.104 7.02,7.129 0,4.32 -3.994,5.832 -8.207,5.832 -2.377,0 -5.453,-0.703 -7.396,-2.053 l -2.107,-5.615 z m 43.144,9.397 0.486,-2.215 -5.563,-1.08 v -29.377 l 4.375,-0.646 0.594,-2.646 h -13.986 l -0.484,2.215 4.859,1.078 v 29.377 l -4.32,0.701 -0.539,2.594 h 14.578 z m 25.76,0 0.484,-2.215 -5.67,-1.08 v -29.754 l 9.234,0.485 1.188,5.938 2.16,-0.539 c 0.379,-2.321 0.541,-6.428 0.541,-8.803 h -30.188 c 0,2.971 0.055,6.48 0.271,9.18 l 2.213,-0.538 1.297,-5.238 8.693,-0.485 v 29.754 l -4.482,0.701 -0.594,2.594 z m 18.574,0 0.486,-2.215 -5.994,-1.08 3.402,-9.18 h 13.391 l 3.402,9.18 -5.238,0.701 -0.484,2.594 h 14.635 l 0.484,-2.215 -4.318,-1.08 -12.477,-33.049 h -3.563 l -12.959,33.049 -3.672,0.701 -0.596,2.594 z m -1.025,-15.552 c 3.672,-9.828 4.805,-12.853 5.615,-15.554 0.918,2.81 1.943,5.617 5.563,15.554 z m 4.48,-27.487 c 0,-2.106 -1.24,-2.646 -2.482,-2.646 -1.352,0 -2.592,0.648 -2.592,2.646 0,1.998 1.297,2.592 2.482,2.592 1.46,0 2.592,-0.81 2.592,-2.592 z m 8.911,0 c 0,-2.106 -1.242,-2.646 -2.482,-2.646 -1.352,0 -2.594,0.648 -2.594,2.646 0,1.998 1.297,2.592 2.484,2.592 1.459,0 2.592,-0.81 2.592,-2.592 z m 30.996,43.039 0.486,-2.215 -5.67,-1.08 v -29.754 l 9.232,0.485 1.188,5.938 2.16,-0.539 c 0.377,-2.321 0.539,-6.428 0.539,-8.803 h -30.186 c 0,2.971 0.053,6.48 0.27,9.18 l 2.215,-0.538 1.297,-5.238 8.693,-0.485 v 29.754 l -4.482,0.701 -0.594,2.594 z m 38.879,0.269 c 6.695,-19.817 8.424,-25.11 9.504,-28.836 1.133,3.672 2.861,8.802 9.342,28.836 h 3.402 l 9.342,-32.888 3.564,-0.756 0.539,-2.592 h -13.121 l -0.486,2.215 5.777,1.133 c -4.807,18.359 -5.4,20.953 -6.533,26.027 -1.135,-4.104 -1.621,-5.723 -9.289,-28.512 h -3.4 c -7.613,23.113 -8.641,26.082 -9.344,28.566 -0.484,-2.43 -1.24,-5.615 -6.426,-26.137 l 5.238,-0.701 0.484,-2.592 h -13.93 l -0.541,2.215 3.672,1.078 8.803,32.94 h 3.402 v 0.004 z m 52.703,-0.269 0.486,-2.215 -5.564,-1.08 v -29.377 l 4.375,-0.646 0.594,-2.646 h -13.984 l -0.486,2.215 4.859,1.078 v 29.377 l -4.32,0.701 -0.539,2.594 h 14.579 z m 31.211,0 c 0.324,-2.539 0.541,-5.672 0.594,-8.965 l -2.699,0.539 -1.514,5.51 -14.146,-0.486 v -14.041 l 8.855,0.379 1.352,3.887 1.996,-0.322 v -10.639 l -2.268,0.432 -1.08,3.295 -8.855,0.322 v -13.121 l 12.313,0.379 1.188,5.185 2.322,-0.647 c 0.377,-3.24 0.484,-5.131 0.484,-7.668 h -25.326 l -0.482,2.215 4.857,1.078 v 29.377 l -4.32,0.701 -0.537,2.594 h 27.268 v -0.004 z m 17.334,0 0.539,-2.215 -5.832,-1.08 c -0.162,-19.656 -0.27,-23.221 -0.432,-26.894 2.105,3.457 3.889,6.05 20.629,31.158 l 2.754,-0.647 0.322,-32.994 4.213,-0.701 0.594,-2.592 h -13.555 l -0.539,2.215 5.832,1.078 c 0.055,14.742 0.217,20.467 0.379,25.381 -2.322,-3.617 -4.537,-6.805 -19.01,-28.674 h -8.803 l -0.484,2.16 4.859,1.08 -0.27,29.43 -4.213,0.701 -0.539,2.594 z"
   id="path61" />
	<path
   fill="#111d4e"
   d="m 34.000208,421.29933 0.486,-2.214 -5.778,-1.08 c 0,-19.872 -0.054,-21.816 -0.162,-28.026 1.404,3.294 3.618,8.208 11.664,25.11 l 2.592,-0.27 c 9.342,-18.9 10.8,-22.032 11.934,-24.84 -0.108,6.966 -0.108,9.666 -0.108,28.026 l -4.482,0.702 -0.594,2.592 h 14.742 l 0.486,-2.214 -5.562,-1.08 v -29.376 l 4.428,-0.648 0.54,-2.646 h -10.422 c -7.722,16.038 -9.72,20.358 -11.34,23.868 -1.404,-3.348 -3.294,-7.452 -11.07,-23.868 h -10.044 l -0.486,2.16 4.968,1.134 -0.54,29.376 -4.212,0.702 -0.594,2.592 z m 61.073,0 c 0.324,-2.538 0.54,-5.67 0.594,-8.964 l -2.7,0.54 -1.512,5.508 -14.147,-0.486 v -14.04 l 8.855,0.378 1.351,3.888 1.997,-0.324 v -10.638 l -2.268,0.432 -1.08,3.294 -8.855,0.324 v -13.122 l 12.312,0.378 1.188,5.184 2.321,-0.648 c 0.378,-3.24 0.486,-5.13 0.486,-7.668 h -25.326 l -0.485,2.214 4.859,1.08 v 29.376 l -4.32,0.702 -0.54,2.592 z m 4.644,0 h 9.450002 c 4.158,0 9.396,-0.216 13.23,-1.512 7.614,-2.592 10.529,-8.856 10.529,-17.496 0,-9.288 -4.05,-13.932 -10.151,-15.822 -2.484,-0.756 -7.29,-1.134 -11.88,-1.134 h -10.692 l -0.486002,2.214 4.860002,1.08 v 29.376 l -4.32,0.702 z m 9.504002,-3.456 v -29.43 c 1.079,-0.162 2.754,-0.162 3.779,-0.162 5.238,0 8.101,1.026 9.721,2.106 3.401,2.106 5.075,7.02 5.075,12.258 0,7.128 -1.943,12.42 -7.182,14.364 -1.512,0.54 -3.834,1.026 -7.614,1.026 -0.863,0 -2.807,-0.054 -3.779,-0.162 z m 41.255,3.456 0.485,-2.214 -5.562,-1.08 v -29.376 l 4.374,-0.648 0.594,-2.646 h -13.986 l -0.485,2.214 4.859,1.08 v 29.376 l -4.319,0.702 -0.54,2.592 z m 33.156,0 c 0.322,-2.16 0.811,-6.264 0.811,-9.018 l -2.107,-0.432 -2.268,6.264 -19.332,-0.378 c 2.538,-3.294 5.021,-6.642 23.003,-30.672 v -1.728 h -27.431 c -0.324,1.89 -0.757,5.94 -0.864,8.748 l 2.105,0.486 2.053,-5.886 17.712,-0.432 c -2.646,3.402 -5.67,7.506 -23.328,31.374 v 1.674 z m 18.791,0 0.486,-2.214 -5.563,-1.08 v -29.376 l 4.375,-0.648 0.594,-2.646 h -13.986 l -0.486,2.214 4.859,1.08 v 29.376 l -4.318,0.702 -0.541,2.592 z m 17.656,0 0.541,-2.214 -5.832,-1.08 c -0.162,-19.656 -0.27,-23.22 -0.432,-26.892 2.105,3.456 3.887,6.048 20.627,31.158 l 2.754,-0.648 0.324,-32.994 4.213,-0.702 0.594,-2.592 h -13.555 l -0.539,2.214 5.832,1.08 c 0.053,14.742 0.215,20.466 0.377,25.38 -2.322,-3.618 -4.535,-6.804 -19.008,-28.674 h -8.803 l -0.484,2.16 4.859,1.08 -0.271,29.43 -4.211,0.702 -0.541,2.592 z m 40.825,0 0.486,-2.214 -5.564,-1.08 v -29.376 l 4.375,-0.648 0.594,-2.646 h -13.985 l -0.486,2.214 4.859,1.08 v 29.376 l -4.32,0.702 -0.539,2.592 z m 4.32,-9.396 c 0,2.754 0.215,5.454 0.646,7.722 2.861,1.566 6.371,2.43 10.801,2.43 7.234,0 12.58,-4.05 12.58,-10.422 0,-4.374 -1.188,-6.48 -7.449,-9.234 l -5.238,-2.322 c -4.752,-2.052 -6.48,-3.726 -6.48,-6.804 0,-3.672 2.484,-5.832 7.021,-5.832 2.43,0 5.02,0.432 7.127,1.296 l 0.918,5.022 2.322,-0.486 c 0.432,-2.484 0.646,-4.806 0.646,-7.236 -2.375,-0.972 -5.832,-1.458 -9.609,-1.458 -7.992,0 -12.367,4.212 -12.367,9.828 0,4.645 2.322,7.128 7.182,9.396 l 4.861,2.214 c 5.615,2.538 7.02,4.104 7.02,7.128 0,4.32 -3.996,5.832 -8.209,5.832 -2.375,0 -5.453,-0.702 -7.396,-2.052 l -2.105,-5.616 z m 55.564,6.804 0.539,-3.24 c -3.939,1.998 -6.695,2.7 -10.689,2.7 -6.75,0 -12.529,-4.212 -12.529,-15.228 0,-9.882 3.889,-15.336 11.771,-15.336 2.215,0 4.43,0.216 6.75,1.134 l 1.242,5.616 2.27,-0.648 c 0.432,-2.754 0.484,-5.184 0.484,-7.56 -1.836,-0.756 -4.535,-1.62 -9.883,-1.62 -10.313,0 -17.441,6.804 -17.441,19.494 0,11.07 5.617,18.09 16.416,18.09 4.697,0 8.371,-1.35 11.07,-3.402 z m 19.764,2.592 0.484,-2.214 -5.561,-1.08 v -13.878 h 17.279 v 13.878 l -4.32,0.702 -0.539,2.592 h 14.525 l 0.484,-2.214 -5.561,-1.08 v -29.376 l 4.428,-0.648 0.539,-2.646 h -13.986 l -0.484,2.214 4.914,1.08 v 12.312 h -17.279 v -12.312 l 4.373,-0.648 0.594,-2.646 h -13.986 l -0.484,2.214 4.859,1.08 v 29.376 l -4.318,0.702 -0.541,2.592 z m 53.135,0 c 0.322,-2.538 0.539,-5.67 0.594,-8.964 l -2.701,0.54 -1.512,5.508 -14.146,-0.486 v -14.04 l 8.855,0.378 1.35,3.888 1.998,-0.324 v -10.638 l -2.268,0.432 -1.08,3.294 -8.855,0.324 v -13.122 l 12.313,0.378 1.188,5.184 2.32,-0.648 c 0.379,-3.24 0.486,-5.13 0.486,-7.668 h -25.326 l -0.486,2.214 4.861,1.08 v 29.376 l -4.32,0.702 -0.541,2.592 z"
   id="path63" />
</g>
</svg>
