<?xml version="1.0" encoding="UTF-8" standalone="no"?>
<!-- Created with Inkscape (http://www.inkscape.org/) -->

<svg
   width="200mm"
   height="200mm"
   viewBox="0 0 200 200"
   version="1.1"
   id="svg40584"
   inkscape:version="1.2 (dc2aeda, 2022-05-15)"
   sodipodi:docname="logo.svg"
   xmlns:inkscape="http://www.inkscape.org/namespaces/inkscape"
   xmlns:sodipodi="http://sodipodi.sourceforge.net/DTD/sodipodi-0.dtd"
   xmlns:xlink="http://www.w3.org/1999/xlink"
   xmlns="http://www.w3.org/2000/svg"
   xmlns:svg="http://www.w3.org/2000/svg">
  <sodipodi:namedview
     id="namedview40586"
     pagecolor="#ffffff"
     bordercolor="#000000"
     borderopacity="0.25"
     inkscape:showpageshadow="2"
     inkscape:pageopacity="0.0"
     inkscape:pagecheckerboard="0"
     inkscape:deskcolor="#d1d1d1"
     inkscape:document-units="mm"
     showgrid="false"
     inkscape:zoom="0.4204826"
     inkscape:cx="348.40918"
     inkscape:cy="659.95596"
     inkscape:window-width="1536"
     inkscape:window-height="846"
     inkscape:window-x="0"
     inkscape:window-y="27"
     inkscape:window-maximized="1"
     inkscape:current-layer="layer1" />
  <defs
     id="defs40581">
    <radialGradient
       fx="0"
       fy="0"
       cx="0"
       cy="0"
       r="1"
       gradientUnits="userSpaceOnUse"
       gradientTransform="matrix(9.67345,0,0,-9.67345,113.13246,518.23982)"
       spreadMethod="pad"
       id="radialGradient59625">
      <stop
         style="stop-color:#aa570b;stop-opacity:1;"
         offset="0"
         id="stop59621" />
      <stop
         style="stop-color:#693d06;stop-opacity:1;"
         offset="1"
         id="stop59623" />
    </radialGradient>
    <radialGradient
       fx="0"
       fy="0"
       cx="0"
       cy="0"
       r="1"
       gradientUnits="userSpaceOnUse"
       gradientTransform="matrix(9.67345,0,0,-9.67345,113.13246,518.23982)"
       spreadMethod="pad"
       id="radialGradient59242">
      <stop
         style="stop-color:#a76320;stop-opacity:1;"
         offset="0"
         id="stop59238" />
      <stop
         style="stop-color:#825803;stop-opacity:1;"
         offset="0.6860953"
         id="stop59240" />
    </radialGradient>
    <linearGradient
       id="linearGradient49113"
       inkscape:swatch="solid">
      <stop
         style="stop-color:#2b2026;stop-opacity:1;"
         offset="0"
         id="stop49111" />
    </linearGradient>
    <radialGradient
       fx="0"
       fy="0"
       cx="0"
       cy="0"
       r="1"
       gradientUnits="userSpaceOnUse"
       gradientTransform="matrix(-24.85269,-3.12843,-3.12843,24.85271,112.28916,515.75979)"
       spreadMethod="pad"
       id="radialGradient6850">
      <stop
         style="stop-opacity:1;stop-color:#faf7f1"
         offset="0"
         id="stop6846" />
      <stop
         style="stop-color:#deba8b;stop-opacity:1;"
         offset="0.80371451"
         id="stop6848" />
    </radialGradient>
    <clipPath
       clipPathUnits="userSpaceOnUse"
       id="clipPath6860">
      <path
         d="M 42.52,394.016 H 343.176 V 719.765 H 42.52 Z"
         id="path6858" />
    </clipPath>
    <radialGradient
       fx="0"
       fy="0"
       cx="0"
       cy="0"
       r="1"
       gradientUnits="userSpaceOnUse"
       gradientTransform="matrix(9.67345,0,0,-9.67345,113.13246,518.23982)"
       spreadMethod="pad"
       id="radialGradient6880">
      <stop
         style="stop-opacity:1;stop-color:#f6bd89"
         offset="0"
         id="stop6876" />
      <stop
         style="stop-color:#f19a2b;stop-opacity:1;"
         offset="1"
         id="stop6878" />
    </radialGradient>
    <clipPath
       clipPathUnits="userSpaceOnUse"
       id="clipPath6890">
      <path
         d="M 42.52,394.016 H 343.176 V 719.765 H 42.52 Z"
         id="path6888" />
    </clipPath>
    <radialGradient
       inkscape:collect="always"
       xlink:href="#radialGradient59625"
       id="radialGradient66164"
       cx="63.282215"
       cy="91.241142"
       fx="63.282215"
       fy="91.241142"
       r="6.3797803"
       gradientTransform="matrix(1,0,0,0.85881,-1.0887596,3.4321487)"
       gradientUnits="userSpaceOnUse" />
    <radialGradient
       inkscape:collect="always"
       xlink:href="#radialGradient59625"
       id="radialGradient66166"
       cx="91.049507"
       cy="70.952972"
       fx="91.049507"
       fy="70.952972"
       r="7.6362925"
       gradientTransform="matrix(1,0,0,0.87117229,-2.8181642,0.13131291)"
       gradientUnits="userSpaceOnUse" />
    <radialGradient
       inkscape:collect="always"
       xlink:href="#radialGradient59625"
       id="radialGradient66168"
       cx="22.980476"
       cy="129.54907"
       fx="22.980476"
       fy="129.54907"
       r="8.3929482"
       gradientTransform="matrix(1,0,0,0.73088294,4.4379511,27.196577)"
       gradientUnits="userSpaceOnUse" />
    <radialGradient
       inkscape:collect="always"
       xlink:href="#radialGradient59625"
       id="radialGradient66170"
       cx="76.433983"
       cy="95.371323"
       fx="76.433983"
       fy="95.371323"
       r="7.6362925"
       gradientTransform="matrix(1,0,0,0.87117229,-2.8181642,3.277073)"
       gradientUnits="userSpaceOnUse" />
    <radialGradient
       inkscape:collect="always"
       xlink:href="#radialGradient59625"
       id="radialGradient66172"
       cx="69.901848"
       cy="108.42299"
       fx="69.901848"
       fy="108.42299"
       r="5.0156202"
       gradientTransform="matrix(1,0,0,0.86313324,-2.8181642,5.830107)"
       gradientUnits="userSpaceOnUse" />
    <radialGradient
       inkscape:collect="always"
       xlink:href="#radialGradient59625"
       id="radialGradient66174"
       cx="102.26826"
       cy="-19.701242"
       fx="102.26826"
       fy="-19.701242"
       r="8.4892731"
       gradientTransform="matrix(0.84622945,0,0,0.61275619,39.989321,-8.2062294)"
       gradientUnits="userSpaceOnUse" />
    <radialGradient
       inkscape:collect="always"
       xlink:href="#radialGradient59625"
       id="radialGradient66176"
       cx="112.51635"
       cy="-9.9920588"
       fx="112.51635"
       fy="-9.9920588"
       r="5.5625286"
       gradientTransform="matrix(1,0,0,0.71117412,-8.7990222,-5.22954)"
       gradientUnits="userSpaceOnUse" />
    <radialGradient
       inkscape:collect="always"
       xlink:href="#radialGradient59625"
       id="radialGradient66178"
       cx="94.668831"
       cy="84.512207"
       fx="94.668831"
       fy="84.512207"
       r="7.6362925"
       gradientTransform="matrix(1,0,0,0.87117229,-2.8181642,1.878118)"
       gradientUnits="userSpaceOnUse" />
    <radialGradient
       inkscape:collect="always"
       xlink:href="#radialGradient59625"
       id="radialGradient66180"
       cx="53.551708"
       cy="95.060776"
       fx="53.551708"
       fy="95.060776"
       r="7.6362925"
       gradientTransform="matrix(1,0,0,0.87117229,-2.8181642,3.237066)"
       gradientUnits="userSpaceOnUse" />
    <radialGradient
       inkscape:collect="always"
       xlink:href="#radialGradient59625"
       id="radialGradient66182"
       cx="58.024151"
       cy="108.65305"
       fx="58.024151"
       fy="108.65305"
       r="7.6362925"
       gradientTransform="matrix(1,0,0,0.87117229,-2.8181642,4.988128)"
       gradientUnits="userSpaceOnUse" />
    <radialGradient
       inkscape:collect="always"
       xlink:href="#radialGradient59625"
       id="radialGradient66184"
       cx="-17.843655"
       cy="-94.602112"
       fx="-17.843655"
       fy="-94.602112"
       r="7.9017763"
       gradientTransform="matrix(1,0,0,0.82039271,-0.90977151,-7.7094487)"
       gradientUnits="userSpaceOnUse" />
    <radialGradient
       inkscape:collect="always"
       xlink:href="#radialGradient59625"
       id="radialGradient66186"
       cx="46.814041"
       cy="91.41465"
       fx="46.814041"
       fy="91.41465"
       r="6.0729771"
       gradientTransform="matrix(1,0,0,0.82365548,-3.3989916,7.3615898)"
       gradientUnits="userSpaceOnUse" />
    <radialGradient
       inkscape:collect="always"
       xlink:href="#radialGradient59625"
       id="radialGradient66188"
       cx="115.53052"
       cy="-15.999946"
       fx="115.53052"
       fy="-15.999946"
       r="8.1094856"
       gradientTransform="matrix(1,0,0,0.78191747,-6.4447062,-11.085892)"
       gradientUnits="userSpaceOnUse" />
    <radialGradient
       inkscape:collect="always"
       xlink:href="#radialGradient59625"
       id="radialGradient66190"
       cx="-73.824745"
       cy="-43.760788"
       fx="-73.824745"
       fy="-43.760788"
       r="5.0876145"
       gradientTransform="matrix(1,0,0,0.8422451,4.9745072,0.69564282)"
       gradientUnits="userSpaceOnUse" />
    <radialGradient
       inkscape:collect="always"
       xlink:href="#radialGradient59625"
       id="radialGradient66192"
       cx="49.15398"
       cy="-91.378998"
       fx="49.15398"
       fy="-91.378998"
       r="5.8222246"
       gradientTransform="matrix(1,0,0,0.64282304,-8.9620813,-29.713127)"
       gradientUnits="userSpaceOnUse" />
    <radialGradient
       inkscape:collect="always"
       xlink:href="#radialGradient59625"
       id="radialGradient66194"
       cx="-75.419853"
       cy="-62.419651"
       fx="-75.419853"
       fy="-62.419651"
       r="7.7483473"
       gradientTransform="matrix(1,0,0,0.84950185,20.629417,11.456518)"
       gradientUnits="userSpaceOnUse" />
    <radialGradient
       inkscape:collect="always"
       xlink:href="#radialGradient59625"
       id="radialGradient66196"
       cx="-100.00313"
       cy="-53.071884"
       fx="-100.00313"
       fy="-53.071884"
       r="7.7483473"
       gradientTransform="matrix(1,0,0,0.84950185,21.357714,1.4885221)"
       gradientUnits="userSpaceOnUse" />
    <radialGradient
       inkscape:collect="always"
       xlink:href="#radialGradient59625"
       id="radialGradient66198"
       cx="-99.236237"
       cy="-83.447609"
       fx="-99.236237"
       fy="-83.447609"
       r="6.1992993"
       gradientTransform="matrix(1,0,0,0.79429359,5.5082654,-10.014535)"
       gradientUnits="userSpaceOnUse" />
    <radialGradient
       inkscape:collect="always"
       xlink:href="#radialGradient59625"
       id="radialGradient66200"
       cx="105.30883"
       cy="87.212799"
       fx="105.30883"
       fy="87.212799"
       r="5.0159292"
       gradientTransform="matrix(1,0,0,0.86304289,-2.6743374,2.875265)"
       gradientUnits="userSpaceOnUse" />
    <radialGradient
       inkscape:collect="always"
       xlink:href="#radialGradient59625"
       id="radialGradient66202"
       cx="-51.228455"
       cy="91.898087"
       fx="-51.228455"
       fy="91.898087"
       r="8.3929482"
       gradientTransform="matrix(1,0,0,0.73088294,4.4379511,17.064054)"
       gradientUnits="userSpaceOnUse" />
    <radialGradient
       inkscape:collect="always"
       xlink:href="#radialGradient59625"
       id="radialGradient66204"
       cx="130.67479"
       cy="16.24663"
       fx="130.67479"
       fy="16.24663"
       r="8.4892731"
       gradientTransform="matrix(1,0,0,0.71386727,-8.7990222,2.3051177)"
       gradientUnits="userSpaceOnUse" />
    <radialGradient
       inkscape:collect="always"
       xlink:href="#radialGradient59625"
       id="radialGradient66206"
       cx="70.565285"
       cy="150.63251"
       fx="70.565285"
       fy="150.63251"
       r="7.6362925"
       gradientTransform="matrix(1,0,0,0.87117229,-2.8181642,10.396245)"
       gradientUnits="userSpaceOnUse" />
    <radialGradient
       inkscape:collect="always"
       xlink:href="#radialGradient59625"
       id="radialGradient66208"
       cx="12.400621"
       cy="-129.58945"
       fx="12.400621"
       fy="-129.58945"
       r="7.9017763"
       gradientTransform="matrix(1,0,0,0.82039271,-0.90977151,-13.993429)"
       gradientUnits="userSpaceOnUse" />
    <radialGradient
       inkscape:collect="always"
       xlink:href="#radialGradient59625"
       id="radialGradient66210"
       cx="-73.344704"
       cy="-92.851593"
       fx="-73.344704"
       fy="-92.851593"
       r="5.0876145"
       gradientTransform="matrix(1,0,0,0.8422451,4.9745072,-7.0486725)"
       gradientUnits="userSpaceOnUse" />
    <radialGradient
       inkscape:collect="always"
       xlink:href="#radialGradient59625"
       id="radialGradient66212"
       cx="-96.107643"
       cy="-112.51119"
       fx="-96.107643"
       fy="-112.51119"
       r="7.7483473"
       gradientTransform="matrix(1,0,0,0.84950185,4.9745072,-9.3336055)"
       gradientUnits="userSpaceOnUse" />
    <radialGradient
       inkscape:collect="always"
       xlink:href="#radialGradient59625"
       id="radialGradient66214"
       cx="-99.523079"
       cy="-102.16269"
       fx="-99.523079"
       fy="-102.16269"
       r="7.7483473"
       gradientTransform="matrix(1,0,0,0.84950185,4.9745072,-7.7761745)"
       gradientUnits="userSpaceOnUse" />
    <radialGradient
       inkscape:collect="always"
       xlink:href="#radialGradient59625"
       id="radialGradient66216"
       cx="-3.1919258"
       cy="135.1375"
       fx="-3.1919258"
       fy="135.1375"
       r="6.3958778"
       gradientTransform="matrix(1,0,0,0.85012661,4.5630673,11.989758)"
       gradientUnits="userSpaceOnUse" />
    <radialGradient
       inkscape:collect="always"
       xlink:href="#radialGradient59625"
       id="radialGradient66218"
       cx="20.695475"
       cy="138.01053"
       fx="20.695475"
       fy="138.01053"
       r="8.4892731"
       gradientTransform="matrix(1,0,0,0.71386727,6.384076,31.262137)"
       gradientUnits="userSpaceOnUse" />
    <radialGradient
       inkscape:collect="always"
       xlink:href="#radialGradient59625"
       id="radialGradient66220"
       cx="50.477245"
       cy="135.54457"
       fx="50.477245"
       fy="135.54457"
       r="7.6362925"
       gradientTransform="matrix(1,0,0,0.87117229,-2.8181642,8.452501)"
       gradientUnits="userSpaceOnUse" />
    <radialGradient
       inkscape:collect="always"
       xlink:href="#radialGradient59625"
       id="radialGradient66222"
       cx="-112.59883"
       cy="-68.34269"
       fx="-112.59883"
       fy="-68.34269"
       r="5.5149693"
       gradientTransform="matrix(1,0,0,0.76608003,14.730969,3.0570518)"
       gradientUnits="userSpaceOnUse" />
    <radialGradient
       inkscape:collect="always"
       xlink:href="#radialGradient59625"
       id="radialGradient66224"
       cx="-105.68826"
       cy="-79.837021"
       fx="-105.68826"
       fy="-79.837021"
       r="5.9616027"
       gradientTransform="matrix(1,0,0,0.81981641,5.0610779,-6.7171326)"
       gradientUnits="userSpaceOnUse" />
    <radialGradient
       inkscape:collect="always"
       xlink:href="#radialGradient59625"
       id="radialGradient66226"
       cx="36.736202"
       cy="139.6884"
       fx="36.736202"
       fy="139.6884"
       r="5.0159292"
       gradientTransform="matrix(1,0,0,0.86304289,-2.6743374,10.062172)"
       gradientUnits="userSpaceOnUse" />
  </defs>
  <g
     inkscape:label="Layer 1"
     inkscape:groupmode="layer"
     id="layer1">
    <g
       id="g6836"
       transform="matrix(3.8865218,0,0,-3.9953581,-335.48845,2177.796)">
      <g
         id="g6838">
        <g
           id="g6844">
          <path
             d="m 106.22189,541.57497 c -4.945,-1.404 1.512,-3.317 -1.241,-6.246 v 0 c -1.796,0.269 -2.952,2.266 -4.486,2.438 v 0 c -2.515002,0.289 -2.163002,-1.768 -3.499002,-3.059 v 0 c -0.787,-0.751 -14.203,-6.805 -8.367,-9.377 v 0 c 0.723,-0.319 1.656,-0.055 2.524,0.21 v 0 c 1.368,0.418 2.576,0.834 2.555,-1.03 v 0 c -0.031,-2.395 -4.636,-2.253 -4.863,-4.238 v 0 c -0.172,-1.504 2.512,-2.197 3.212,-3.124 v 0 c 1.712,-2.272 1.164,-0.985 -0.955,-2.42 v 0 c -2.722,-1.841 -4.297,-3.879 -1.783,-7.103 v 0 c 3.628,-4.66 7.264,-2.631 12.030002,-4.462 v 0 c 2.686,-1.033 4.328,-3.805 7.062,-5.073 v 0 c 2.169,-1.008 5.138,-1.265 7.254,0.298 v 0 c 1.502,1.112 2.434,2.808 4.192,3.53 v 0 c 1.462,0.598 2.813,0.302 4.175,0.006 v 0 c 0.928,-0.202 1.862,-0.404 2.84,-0.322 v 0 c 1.682,0.141 7.706,2.022 7.813,4.013 v 0 c 0.119,2.212 -5.112,2.318 -3.906,5.339 v 0 l 0.553,0.335 c 2.983,1.817 4.765,4.135 5.497,8.029 v 0 c 0.757,4.037 -3.459,2.652 -4.881,5.953 v 0 c -0.925,2.144 0.819,2.54 0.907,5.437 v 0 c 0.055,1.81 -2.925,2.478 -5.821,2.794 v 0 c -1.26,0.137 -2.092,-0.135 -2.747,-0.406 v 0 c -1.454,-0.602 -2.044,-1.206 -4.539,2.66 v 0 c -1.378,2.137 -0.423,3.686 -3.098,5.058 v 0 c -1.622,0.832 -4.108,1.231 -6.439,1.231 v 0 c -1.478,0 -2.894,-0.16 -3.989,-0.471"
             style="opacity:0.442238;fill:url(#radialGradient6850);stroke:none"
             id="path6852" />
        </g>
      </g>
    </g>
    <g
       id="g6854"
       transform="matrix(3.8865218,0,0,-3.9953581,-338.30661,2168.7866)"
       style="stroke:#2e2e2e;stroke-opacity:1;stroke-width:0.50754153;stroke-dasharray:none">
      <g
         id="g6856"
         clip-path="url(#clipPath6860)"
         style="stroke:#2e2e2e;stroke-opacity:1;stroke-width:0.50754153;stroke-dasharray:none">
        <g
           id="g6862"
           transform="translate(131.5041,508.6998)"
           style="stroke:#2e2e2e;stroke-opacity:1;stroke-width:0.50754153;stroke-dasharray:none">
          <path
             d="m 0,0 c -1.206,-3.02 4.025,-3.127 3.905,-5.339 -0.106,-1.991 -6.131,-3.872 -7.812,-4.013 -2.413,-0.201 -4.557,1.323 -7.015,0.316 -1.758,-0.722 -2.69,-2.417 -4.192,-3.53 -2.116,-1.563 -5.086,-1.306 -7.254,-0.298 -2.734,1.268 -4.376,4.04 -7.063,5.074 -4.765,1.83 -8.401,-0.199 -12.029,4.461 -2.514,3.225 -0.939,5.262 1.783,7.104 2.118,1.434 2.666,0.147 0.955,2.419 -0.7,0.928 -3.384,1.621 -3.213,3.125 0.227,1.984 4.832,1.842 4.864,4.238 0.035,3.048 -3.215,-0.002 -5.079,0.819 -5.835,2.572 7.579,8.626 8.367,9.377 1.335,1.291 0.984,3.349 3.499,3.059 1.534,-0.172 2.69,-2.169 4.486,-2.438 2.753,2.929 -3.704,4.842 1.241,6.247 2.823,0.801 7.777,0.6 10.428,-0.761 2.675,-1.371 1.72,-2.921 3.098,-5.058 3.62,-5.608 3.231,-1.811 7.286,-2.253 C -0.849,22.233 2.13,21.564 2.076,19.754 1.988,16.857 0.245,16.461 1.169,14.317 2.592,11.016 6.807,12.401 6.05,8.365 5.319,4.47 3.536,2.152 0.553,0.335 Z"
             style="fill:none;stroke:#2e2e2e;stroke-width:0.50754153;stroke-linecap:butt;stroke-linejoin:miter;stroke-miterlimit:4;stroke-dasharray:none;stroke-opacity:1"
             id="path6864" />
        </g>
      </g>
    </g>
    <g
       id="g6866"
       transform="matrix(3.8865218,0,0,-3.9953581,-323.68854,2188.2495)">
      <g
         id="g6868">
        <g
           id="g6874">
          <path
             d="m 114.063,526.571 c -0.985,-0.562 -1.702,-1.917 -2.631,-2.365 v 0 c -1.051,-0.509 -2.24,-0.168 -3.379,-0.533 v 0 c -2.555,-0.815 -4.17,-2.794 -4.892,-5.349 v 0 c -3.15,-11.106 18.277,-13.347 20.06,-1.248 v 0 c 0.21,1.435 0.184,3.011 -0.105,4.518 v 0 c -0.646,3.401 -2.944,5.888 -5.888,5.888 v 0 c -0.995,0 -2.062,-0.284 -3.165,-0.911"
             style="fill:url(#radialGradient6880);stroke:none"
             id="path6882" />
        </g>
      </g>
    </g>
    <g
       id="g6884"
       transform="matrix(3.8865206,0,0,-3.9945043,-323.54661,2187.6739)"
       style="stroke:#222222;stroke-opacity:1;stroke-width:0.50759585;stroke-dasharray:none">
      <g
         id="g6886"
         clip-path="url(#clipPath6890)"
         style="stroke-width:0.50759585;stroke-dasharray:none;stroke:#222222;stroke-opacity:1">
        <g
           id="g6892"
           transform="translate(123.1159,521.5938)"
           style="stroke-width:0.50759585;stroke-dasharray:none;stroke:#222222;stroke-opacity:1">
          <path
             d="m 0,0 c 0.289,-1.507 0.315,-3.083 0.105,-4.518 -1.783,-12.098 -23.21,-9.857 -20.06,1.249 0.722,2.555 2.337,4.533 4.892,5.348 1.139,0.366 2.327,0.025 3.379,0.533 0.93,0.448 1.646,1.804 2.631,2.365 C -4.684,7.462 -0.864,4.55 0,0 Z"
             style="fill:none;stroke:#222222;stroke-width:0.50759585;stroke-linecap:butt;stroke-linejoin:miter;stroke-miterlimit:4;stroke-dasharray:none;stroke-opacity:1"
             id="path6894" />
        </g>
      </g>
    </g>
    <ellipse
       style="opacity:1;mix-blend-mode:multiply;fill:url(#radialGradient66164);fill-opacity:1;fill-rule:evenodd;stroke:#020302;stroke-width:0.700789;stroke-dasharray:none;stroke-dashoffset:0;stroke-opacity:1"
       id="path46920"
       cx="62.193455"
       cy="81.790955"
       rx="6.0293856"
       ry="5.1286244"
       transform="matrix(0.96767582,-0.25219735,0.18672622,0.98241199,0,0)" />
    <ellipse
       style="mix-blend-mode:multiply;fill:url(#radialGradient66166);fill-opacity:1;fill-rule:evenodd;stroke:#020302;stroke-width:0.7;stroke-dasharray:none;stroke-dashoffset:0;stroke-opacity:1"
       id="path46920-1"
       cx="88.231346"
       cy="61.943577"
       rx="7.2862926"
       ry="6.3025265" />
    <ellipse
       style="mix-blend-mode:multiply;fill:url(#radialGradient66168);fill-opacity:1;fill-rule:evenodd;stroke:#020302;stroke-width:0.704335;stroke-dasharray:none;stroke-dashoffset:0;stroke-opacity:1"
       id="path46920-1-9"
       cx="27.418427"
       cy="121.88178"
       rx="8.040781"
       ry="5.7820954"
       transform="matrix(0.58745052,-0.80926008,0.70758277,0.70663047,0,0)" />
    <ellipse
       style="mix-blend-mode:multiply;fill:url(#radialGradient66170);fill-opacity:1;fill-rule:evenodd;stroke:#020302;stroke-width:0.7;stroke-dasharray:none;stroke-dashoffset:0;stroke-opacity:1"
       id="path46920-1-9-4"
       cx="73.615822"
       cy="86.361923"
       rx="7.2862926"
       ry="6.3025265" />
    <ellipse
       style="mix-blend-mode:multiply;fill:url(#radialGradient66172);fill-opacity:1;fill-rule:evenodd;stroke:#020302;stroke-width:0.7;stroke-dasharray:none;stroke-dashoffset:0;stroke-opacity:1"
       id="path46920-2"
       cx="67.083687"
       cy="99.413589"
       rx="4.6656203"
       ry="3.9791486" />
    <ellipse
       style="mix-blend-mode:multiply;fill:url(#radialGradient66174);fill-opacity:1;fill-rule:evenodd;stroke:#020302;stroke-width:0.600007;stroke-dasharray:none;stroke-dashoffset:0;stroke-opacity:1"
       id="path46920-9"
       cx="126.53174"
       cy="-20.278286"
       rx="6.8859973"
       ry="4.8997087"
       transform="matrix(0.54113602,0.84093508,-0.77791802,0.62836578,0,0)" />
    <ellipse
       style="mix-blend-mode:multiply;fill:url(#radialGradient66176);fill-opacity:1;fill-rule:evenodd;stroke:#020302;stroke-width:0.704007;stroke-dasharray:none;stroke-dashoffset:0;stroke-opacity:1"
       id="path46920-2-3"
       cx="103.71733"
       cy="-12.335633"
       rx="5.210525"
       ry="3.6039228"
       transform="matrix(0.52365871,0.85192814,-0.76358575,0.64570644,0,0)" />
    <ellipse
       style="mix-blend-mode:multiply;fill:url(#radialGradient66178);fill-opacity:1;fill-rule:evenodd;stroke:#020302;stroke-width:0.7;stroke-dasharray:none;stroke-dashoffset:0;stroke-opacity:1"
       id="path46920-7"
       cx="91.85067"
       cy="75.502808"
       rx="7.2862926"
       ry="6.3025265" />
    <ellipse
       style="mix-blend-mode:multiply;fill:url(#radialGradient66180);fill-opacity:1;fill-rule:evenodd;stroke:#020302;stroke-width:0.7;stroke-dasharray:none;stroke-dashoffset:0;stroke-opacity:1"
       id="path46920-1-8"
       cx="50.733543"
       cy="86.051376"
       rx="7.2862926"
       ry="6.3025265" />
    <ellipse
       style="mix-blend-mode:multiply;fill:url(#radialGradient66182);fill-opacity:1;fill-rule:evenodd;stroke:#020302;stroke-width:0.7;stroke-dasharray:none;stroke-dashoffset:0;stroke-opacity:1"
       id="path46920-1-9-45"
       cx="55.205986"
       cy="99.643654"
       rx="7.2862926"
       ry="6.3025265" />
    <ellipse
       style="mix-blend-mode:multiply;fill:url(#radialGradient66184);fill-opacity:1;fill-rule:evenodd;stroke:#020302;stroke-width:0.702817;stroke-dasharray:none;stroke-dashoffset:0;stroke-opacity:1"
       id="path46920-1-9-4-0"
       cx="-18.753426"
       cy="-85.320328"
       rx="7.5503678"
       ry="6.1311512"
       transform="matrix(-0.8650752,0.5016422,-0.38841525,-0.92148445,0,0)" />
    <ellipse
       style="mix-blend-mode:multiply;fill:url(#radialGradient66186);fill-opacity:1;fill-rule:evenodd;stroke:#020302;stroke-width:0.700035;stroke-dasharray:none;stroke-dashoffset:0;stroke-opacity:1"
       id="path46920-9-1"
       cx="43.415051"
       cy="82.655769"
       rx="5.7229595"
       ry="4.6520233"
       transform="matrix(0.9968613,0.07916782,-0.06509494,0.99787908,0,0)" />
    <ellipse
       style="mix-blend-mode:multiply;fill:url(#radialGradient66188);fill-opacity:1;fill-rule:evenodd;stroke:#020302;stroke-width:0.704078;stroke-dasharray:none;stroke-dashoffset:0;stroke-opacity:1"
       id="path46920-1-9-4-6"
       cx="109.08582"
       cy="-23.596529"
       rx="7.7574463"
       ry="5.9889092"
       transform="matrix(0.75414698,0.65670567,-0.53483269,0.84495798,0,0)" />
    <ellipse
       style="mix-blend-mode:multiply;fill:url(#radialGradient66190);fill-opacity:1;fill-rule:evenodd;stroke:#020302;stroke-width:0.701348;stroke-dasharray:none;stroke-dashoffset:0;stroke-opacity:1"
       id="path46920-2-32"
       cx="-68.850235"
       cy="-36.161667"
       rx="4.7369404"
       ry="3.9343443"
       transform="matrix(-0.94370191,-0.33079707,0.2469085,-0.9690388,0,0)" />
    <ellipse
       style="mix-blend-mode:multiply;fill:url(#radialGradient66192);fill-opacity:1;fill-rule:evenodd;stroke:#020302;stroke-width:0.700004;stroke-dasharray:none;stroke-dashoffset:0;stroke-opacity:1"
       id="path46920-2-3-06"
       cx="40.191898"
       cy="-88.453651"
       rx="5.4722228"
       ry="3.3926582"
       transform="matrix(-0.01191558,0.99992901,-0.99986565,-0.01639153,0,0)" />
    <ellipse
       style="mix-blend-mode:multiply;fill:url(#radialGradient66194);fill-opacity:1;fill-rule:evenodd;stroke:#020302;stroke-width:0.701348;stroke-dasharray:none;stroke-dashoffset:0;stroke-opacity:1"
       id="path46920-1-8-1"
       cx="-54.790436"
       cy="-41.569092"
       rx="7.3976731"
       ry="6.2315612"
       transform="matrix(-0.94370191,-0.33079707,0.2469085,-0.9690388,0,0)" />
    <ellipse
       style="mix-blend-mode:multiply;fill:url(#radialGradient66196);fill-opacity:1;fill-rule:evenodd;stroke:#020302;stroke-width:0.701348;stroke-dasharray:none;stroke-dashoffset:0;stroke-opacity:1"
       id="path46920-1-9-45-5"
       cx="-78.645409"
       cy="-43.596142"
       rx="7.3976731"
       ry="6.2315612"
       transform="matrix(-0.94370191,-0.33079707,0.2469085,-0.9690388,0,0)" />
    <ellipse
       style="mix-blend-mode:multiply;fill:url(#radialGradient66198);fill-opacity:1;fill-rule:evenodd;stroke:#020302;stroke-width:0.701652;stroke-dasharray:none;stroke-dashoffset:0;stroke-opacity:1"
       id="path46920-9-1-5"
       cx="-93.727974"
       cy="-76.296432"
       rx="5.8484735"
       ry="4.5732379"
       transform="matrix(-0.91571017,-0.40183937,0.31125108,-0.95032772,0,0)" />
    <ellipse
       style="mix-blend-mode:multiply;fill:url(#radialGradient66200);fill-opacity:1;fill-rule:evenodd;stroke:#020302;stroke-width:0.700006;stroke-dasharray:none;stroke-dashoffset:0;stroke-opacity:1"
       id="path46920-2-3-0"
       cx="102.63449"
       cy="78.143654"
       rx="4.665926"
       ry="3.9789588"
       transform="matrix(0.99975989,-0.02191245,0.01592972,0.99987311,0,0)"
       inkscape:transform-center-x="13.361928"
       inkscape:transform-center-y="5.5519821" />
    <ellipse
       style="mix-blend-mode:multiply;fill:url(#radialGradient66202);fill-opacity:1;fill-rule:evenodd;stroke:#020302;stroke-width:0.704335;stroke-dasharray:none;stroke-dashoffset:0;stroke-opacity:1"
       id="path46920-1-9-47"
       cx="-46.790504"
       cy="84.230797"
       rx="8.040781"
       ry="5.7820954"
       transform="matrix(0.58745052,-0.80926008,0.70758277,0.70663047,0,0)" />
    <ellipse
       style="mix-blend-mode:multiply;fill:url(#radialGradient66204);fill-opacity:1;fill-rule:evenodd;stroke:#020302;stroke-width:0.704007;stroke-dasharray:none;stroke-dashoffset:0;stroke-opacity:1"
       id="path46920-9-6"
       cx="121.87577"
       cy="13.903055"
       rx="8.13727"
       ry="5.7082109"
       transform="matrix(0.52365871,0.85192814,-0.76358575,0.64570644,0,0)" />
    <ellipse
       style="mix-blend-mode:multiply;fill:url(#radialGradient66206);fill-opacity:1;fill-rule:evenodd;stroke:#020302;stroke-width:0.7;stroke-dasharray:none;stroke-dashoffset:0;stroke-opacity:1"
       id="path46920-1-9-45-56"
       cx="67.747124"
       cy="141.62311"
       rx="7.2862926"
       ry="6.3025265" />
    <ellipse
       style="mix-blend-mode:multiply;fill:url(#radialGradient66208);fill-opacity:1;fill-rule:evenodd;stroke:#020302;stroke-width:0.702817;stroke-dasharray:none;stroke-dashoffset:0;stroke-opacity:1"
       id="path46920-1-9-4-0-9"
       cx="11.490849"
       cy="-120.30766"
       rx="7.5503678"
       ry="6.1311512"
       transform="matrix(-0.8650752,0.5016422,-0.38841525,-0.92148445,0,0)" />
    <ellipse
       style="mix-blend-mode:multiply;fill:url(#radialGradient66210);fill-opacity:1;fill-rule:evenodd;stroke:#020302;stroke-width:0.701348;stroke-dasharray:none;stroke-dashoffset:0;stroke-opacity:1"
       id="path46920-2-32-3"
       cx="-68.370193"
       cy="-85.252472"
       rx="4.7369404"
       ry="3.9343443"
       transform="matrix(-0.94370191,-0.33079707,0.2469085,-0.9690388,0,0)" />
    <ellipse
       style="mix-blend-mode:multiply;fill:url(#radialGradient66212);fill-opacity:1;fill-rule:evenodd;stroke:#020302;stroke-width:0.701348;stroke-dasharray:none;stroke-dashoffset:0;stroke-opacity:1"
       id="path46920-1-8-1-7"
       cx="-91.133133"
       cy="-104.91207"
       rx="7.3976731"
       ry="6.2315612"
       transform="matrix(-0.94370191,-0.33079707,0.2469085,-0.9690388,0,0)" />
    <ellipse
       style="mix-blend-mode:multiply;fill:url(#radialGradient66214);fill-opacity:1;fill-rule:evenodd;stroke:#020302;stroke-width:0.701348;stroke-dasharray:none;stroke-dashoffset:0;stroke-opacity:1"
       id="path46920-1-9-45-5-4"
       cx="-94.548569"
       cy="-94.563568"
       rx="7.3976731"
       ry="6.2315612"
       transform="matrix(-0.94370191,-0.33079707,0.2469085,-0.9690388,0,0)" />
    <ellipse
       style="mix-blend-mode:multiply;fill:url(#radialGradient66216);fill-opacity:1;fill-rule:evenodd;stroke:#020302;stroke-width:0.7;stroke-dasharray:none;stroke-dashoffset:0;stroke-opacity:1"
       id="path46920-1-9-45-2"
       cx="1.3711416"
       cy="126.87374"
       rx="6.0458779"
       ry="5.087306"
       transform="rotate(-46.276355)" />
    <ellipse
       style="mix-blend-mode:multiply;fill:url(#radialGradient66218);fill-opacity:1;fill-rule:evenodd;stroke:#020302;stroke-width:0.704007;stroke-dasharray:none;stroke-dashoffset:0;stroke-opacity:1"
       id="path46920-9-6-5"
       cx="27.07955"
       cy="129.78334"
       rx="8.13727"
       ry="5.7082109"
       transform="matrix(0.85611471,-0.51678583,0.63954055,0.76875736,0,0)" />
    <ellipse
       style="mix-blend-mode:multiply;fill:url(#radialGradient66220);fill-opacity:1;fill-rule:evenodd;stroke:#020302;stroke-width:0.7;stroke-dasharray:none;stroke-dashoffset:0;stroke-opacity:1"
       id="path46920-1-9-45-56-4"
       cx="47.659081"
       cy="126.53517"
       rx="7.2862926"
       ry="6.3025265" />
    <ellipse
       style="mix-blend-mode:multiply;fill:url(#radialGradient66222);fill-opacity:1;fill-rule:evenodd;stroke:#020302;stroke-width:0.700022;stroke-dasharray:none;stroke-dashoffset:0;stroke-opacity:1"
       id="path46920-1-8-1-7-7"
       cx="-97.867859"
       cy="-49.298916"
       rx="5.1649585"
       ry="3.874897"
       transform="matrix(-0.95648605,-0.29177807,0.28098831,-0.95971119,0,0)" />
    <ellipse
       style="mix-blend-mode:multiply;fill:url(#radialGradient66224);fill-opacity:1;fill-rule:evenodd;stroke:#020302;stroke-width:0.700642;stroke-dasharray:none;stroke-dashoffset:0;stroke-opacity:1"
       id="path46920-1-9-45-5-4-4"
       cx="-100.62718"
       cy="-72.168831"
       rx="5.6112819"
       ry="4.5370989"
       transform="matrix(-0.94858374,-0.31652629,0.25856067,-0.96599502,0,0)" />
    <ellipse
       style="mix-blend-mode:multiply;fill:url(#radialGradient66226);fill-opacity:1;fill-rule:evenodd;stroke:#020302;stroke-width:0.700006;stroke-dasharray:none;stroke-dashoffset:0;stroke-opacity:1"
       id="path46920-2-3-0-5"
       cx="34.061867"
       cy="130.61925"
       rx="4.665926"
       ry="3.9789588"
       transform="matrix(0.99975989,-0.02191245,0.01592972,0.99987311,0,0)"
       inkscape:transform-center-x="13.361928"
       inkscape:transform-center-y="5.5519821" />
  </g>
</svg>
